Patient4_TMGait_0pt4_03_left_31_EMG.mot
version=1
nRows=40
nColumns=33
inDegrees=no
endheader
time	1LAddLong	2LGlutMax	3LGlutMed	4LIliopsoas	5LSemiMemb	6LBicFemLong	7LRecFem	8LVastMed	9LVastLat	10LGasMed	11LTibAnt	12lTibPost	13LPeroneusLong	14LSol	15LExtDigLong	16LFlexDigLong	17RAddLong	18RGlutMax	19RGlutMed	20RIliopsoas	21RSemiMemb	22RBicFemLong	23RRecFem	24RVastMed	25RVastLat	26RGasMed	27RTibAnt	28RTibPost	29RPeroneusLong	30RSol	31RExtDigLong	32RFlexDigLong
41.317	0.019989	0.038757	0.049133	0.000763	-0.037537	-0.019226	-0.62042	-0.015259	-0.12909	0.023499	0.080719	0.22812	-0.15976	-0.45746	-0.13214	0.046539	-0.034332	-0.12817	-0.09079	0.16953	0.017853	-0.15045	0.36819	-0.073242	-0.0354	0.010071	-1.1914	-0.004425	0.20401	-0.099335	-0.001221	-0.010986
41.318	0.030365	-0.036316	-0.033722	0.010376	0.011139	0.009003	-0.62759	-0.005798	-0.12375	0.19898	0.1326	0.080109	-0.079346	-0.39108	-0.068817	-0.070038	0.027771	-0.17502	0.062714	0.10757	0.066833	-0.10681	0.40039	-0.054932	-0.03479	0.008545	-1.1226	-0.009003	0.13473	-0.065918	-0.001068	-0.007324
41.319	0.028992	-0.021057	0.070496	0.015564	0.03067	-0.13794	-0.65964	-0.008545	-0.083923	0.2504	0.13733	-0.012665	0.036469	-0.34546	0.010834	-0.11276	0.051422	-0.18982	-0.050201	0.039825	0.083618	-0.0177	0.43686	-0.043945	-0.037537	-0.00351	-0.19989	-0.007629	-0.002747	0.098114	-0.001678	-0.014496
41.32	0.028534	0.0354	0.092926	-0.003967	0.04303	-0.10193	-0.67902	-0.010986	-0.072479	0.23377	0.022736	0.075073	0.1091	-0.038757	0.45334	-0.2533	0.075684	-0.16037	0.033722	-0.045929	0.071869	0.11551	0.44296	0.001831	-0.058441	0.006256	0.44632	-0.005341	0.095215	0.11871	-0.002899	-0.02243
41.321	0.018158	0.14038	0.25559	0.008698	0.012817	-0.000153	-0.66818	-0.016327	0.02243	0.21393	0.008545	-0.006409	0.054626	-0.003662	1.4223	-0.04425	0.080566	-0.17975	0.21011	-0.1799	0.072021	0.14252	0.40558	0.054779	-0.043488	0.012512	0.86273	-0.006561	0.21591	0.09552	-0.006561	-0.013428
41.322	0.012665	0.23117	0.1767	0.000916	-0.05188	-0.00885	-0.65659	-0.001068	0.18173	0.15152	0.004272	-0.019379	0.003967	0.065918	-0.15671	0.11826	0.059204	-0.20203	0.19745	-0.22675	0.063324	0.11826	0.37735	0.089111	-0.017242	0.006561	0.30518	-0.005951	0.15121	0.080566	-0.000458	-0.014496
41.323	0.01709	0.19272	0.060272	-0.00412	-0.10559	-0.058746	-0.67917	0.002594	0.26962	0.13107	-0.05661	-0.009003	-0.055237	0.19333	0.21469	0.034943	0.02121	-0.21484	0.012817	-0.26245	0.036316	0.014343	0.34134	0.054016	-0.022125	0.006256	-0.14328	-0.001373	0.018158	-0.023041	-0.000153	-0.016937
41.324	0.022125	0.22018	0.15091	0.010986	-0.072632	-0.17716	-0.68832	0.001068	0.34393	0.076294	0.06424	-0.014801	0.022888	0.11902	-0.5574	-0.007477	0.000305	-0.19974	0.041046	-0.2124	0.003662	-0.060272	0.3035	0.043488	-0.031128	0.004578	0.075531	-0.00412	-0.068207	0.016022	0.000305	-0.02243
41.325	0.043793	0.29297	0.14923	0.016327	0.025482	-0.41077	-0.70999	0.007629	0.39902	-0.011597	0.14404	-0.023956	0.054474	0.060577	-0.10635	0.006714	-0.070038	-0.23575	0.091095	-0.070038	0.005341	-0.05722	0.3215	0.06012	-0.015259	0.007935	0.20935	-0.003052	-0.15579	0.040436	0.002594	-0.015259
41.326	0.045776	0.23239	0.042877	-0.00061	0.059814	-0.13321	-0.68375	0.015869	0.25559	-0.071869	-0.1442	-0.011597	0.1265	0.082397	-0.55328	-0.0177	-0.088501	-0.25665	-0.11581	0.12619	-0.000305	-0.024872	0.30472	0.15152	-0.018005	0.005341	-0.019226	-0.005798	-0.10666	0.18814	-0.003662	-0.016174
41.327	0.037384	0.21316	-0.054626	0.009918	0.052795	0.081024	-0.60989	0.023193	-0.027161	-0.045166	-0.2832	-0.015106	0.10803	-0.005035	-0.30762	-0.002899	-0.031128	-0.21591	-0.063171	0.003662	0.007477	-0.021973	0.30197	0.11475	-0.035706	-0.001068	-0.19241	0.007172	0.011749	0.22949	-0.001068	-0.018921
41.328	0.017548	0.18524	-0.071106	0.016327	0.021057	0.092773	-0.56351	0.013275	-0.3624	-0.001068	-0.070496	-0.001984	-0.004425	-0.12726	-0.11749	-0.009766	0.092316	-0.25833	0.06073	-0.23224	0.022736	0.003052	0.31921	0.087128	-0.05127	0.006256	-0.36697	-0.004883	0.041962	0.13367	0.000458	-0.019226
41.329	0.019226	0.21362	-0.035248	-0.007324	0.005951	0.071411	-0.56427	0.015411	-0.4718	0.015259	-0.045776	-0.019684	0.012054	-0.087738	-0.12985	-0.009766	0.11276	-0.26672	-0.019684	-0.23193	0.017853	0.070648	0.31967	0.08667	-0.065613	0.003815	-0.31799	-0.001984	0.006714	0.08606	0.001526	-0.021362
41.33	0.011292	0.21072	0.019531	-0.019073	-0.008545	0.12848	-0.57068	0.013275	-0.31525	0.020294	0.044098	-0.025787	0.071106	-0.038452	-0.18967	-0.022125	0.064392	-0.2623	-0.057831	0.014496	0.026093	0.06958	0.34409	0.058899	-0.067596	0.003815	-0.17044	-0.002136	0.003204	0.075073	-0.001526	-0.010071
41.331	0.007324	0.21957	-0.056458	0.018616	-0.050049	0.1442	-0.68603	0.011444	-0.19379	0.054321	0.04715	-0.033112	0.022125	-0.072174	-0.26398	-0.054932	0.054779	-0.24445	-0.052338	0.27817	0.015106	-0.021515	0.35385	-0.006104	-0.096741	-0.00412	-0.025024	-0.002289	0.015869	0.027618	0	-0.007935
41.332	0.007019	0.18692	-0.10437	0.026703	-0.074768	0.13931	-0.66009	0.027466	-0.12909	0.032806	0.049591	-0.019836	-0.010223	-0.10544	-0.32532	-1.5781	0.024872	-0.22522	0.081329	0.36087	-0.012512	-0.090637	0.33218	0.025635	-0.074768	0.005493	0.10483	-0.00412	-0.019531	0.018768	-0.001221	0.006561
41.333	0.010223	0.20187	-0.10117	0.030823	-0.018311	0.12589	-0.65018	0.026398	-0.085602	0.004272	-0.053558	-0.036469	-0.000916	-0.062714	0.007935	0.28061	0.009766	-0.17242	0.14511	0.20401	-0.047607	-0.078888	0.36453	-0.02655	-0.080109	0.002899	0.37552	-0.000305	-0.031891	0.10315	-0.003052	-0.00412
41.334	0.010376	0.10147	-0.00473	0.005646	-0.021057	0.1619	-0.56503	0.014648	0.059509	-0.014954	0.065918	-0.017242	0.027466	-0.12299	0.13123	0.91721	0.032043	-0.13565	0.2301	0.098419	-0.067139	-0.026093	0.40222	-0.046082	-0.071716	0.001221	0.093994	-0.002441	0.001678	0.079956	-0.004272	-0.009155
41.335	0.007477	0.041504	-0.067749	0.020294	-0.008698	0.16052	-0.42618	0.029144	0.19257	0.003204	0.10941	-0.019379	-0.006409	-0.11139	0.19531	-0.20279	0.031738	-0.19165	0.24399	0.13138	-0.075531	0.044861	0.39841	-0.041199	-0.093842	0.00351	-0.18494	-0.002747	0.03891	0.040741	-0.003357	-0.007324
41.336	0.011597	0.088348	-0.037231	0.023956	0.039063	0.11154	-0.35614	0.014343	0.27878	0.017242	0.065918	-0.03006	-0.03067	0.019836	-0.01236	-0.15228	0.036469	-0.17227	-0.033875	0.089417	-0.038757	0.090942	0.4097	-0.08728	-0.075836	0.00412	-0.15732	-0.010986	-0.047302	0.011444	-0.005798	0.001831
41.337	0.011902	0.1767	0.00473	0.032654	0.016785	-0.053406	-0.31555	-0.024414	0.17212	0.001831	-0.018005	-0.037994	-0.014343	0.10605	-0.032043	0.32547	-0.008698	-0.14267	-0.13779	0.012207	-0.03418	0.10941	0.40298	-0.093079	-0.069275	0.004272	-0.11154	-0.004578	-0.091858	0.022583	-0.003052	-0.010681
41.338	0.004883	0.16419	-0.079193	-0.00824	-0.004578	-0.19821	-0.3154	-0.040588	0.065765	0.004425	0.020752	-0.03006	0.00061	0.062561	0.32181	-0.28183	-0.014801	-0.092163	-0.22705	0.039063	0.006409	0.097809	0.39703	-0.062103	-0.051117	0.003357	0.059509	-0.002747	-0.10086	0.016937	-0.004883	-0.012512
41.339	-0.007019	0.18448	-0.036163	0.00351	-0.034943	-0.079498	-0.24612	-0.041809	-0.037689	-0.010986	0.084991	-0.032806	0.014038	0.009613	0.26627	0.033264	-0.040588	-0.10773	-0.17136	0.024414	0.057678	-0.011902	0.44342	-0.054932	-0.069885	0.005646	-0.041962	-0.008545	0.007782	-0.019836	-0.001831	-0.018158
41.34	-0.01236	0.18158	-0.035858	0.00885	-0.075531	0.004425	-0.19608	-0.043793	-0.022278	-0.047913	0.097046	-0.031281	0.071564	-0.058594	0.060425	0.090485	-0.018921	-0.059357	-0.011597	-0.005035	0.077972	-0.00946	0.42908	-0.095062	-0.06485	-0.008545	0.17029	-0.005951	-0.11795	-0.082092	-0.003815	-0.017395
41.341	-0.014343	0.15213	-0.10284	0.005341	-0.097504	0.042725	-0.19089	-0.032349	-0.055084	-0.014648	-0.030365	-0.032043	0.058746	-0.14221	-0.011444	-0.068512	0.028687	0.011139	0.00824	-0.046844	0.079651	0.046997	0.39047	-0.040436	-0.046844	0.001373	0.16373	-0.007324	-0.081635	-0.080872	-0.005646	-0.019989
41.342	-0.016479	0.16281	-0.10544	-0.007629	-0.10269	0.10117	-0.24826	-0.028839	-0.077057	0.018616	-0.31647	-0.018158	-0.008392	-0.064392	-0.096436	0.20233	0.056458	-0.009766	-0.056305	-0.038147	0.036926	0.064392	0.39459	-0.008087	-0.033569	0.002747	0.10941	-0.004425	-0.048065	-0.10361	-0.001373	-0.017395
41.343	-0.001678	0.17624	-0.10117	-0.002136	-0.027618	0.02243	-0.26459	-0.025635	-0.034485	0.016785	-0.2153	-0.022583	-0.035706	0.007629	-0.067291	0.12741	0.061646	-0.046539	-0.10407	-0.01297	0.012665	0.056	0.36743	-0.044556	-0.038452	0.003967	0.053253	-0.00061	-0.010529	-0.087128	-0.004272	-0.015717
41.344	-0.002594	0.16678	-0.1239	-0.008545	0.041809	-0.015411	-0.21805	-0.02533	0.023499	0.005341	-0.10132	-0.024414	-0.027466	-0.048523	0.050507	0.17105	0.01297	0.018768	-0.019989	-0.02594	-0.003662	0.021667	0.36362	-0.060425	-0.033569	0.005646	0.055847	-0.001221	0.071259	0.016937	-0.002594	-0.007324
41.345	0.008698	0.13596	-0.023651	-0.001831	0.067902	0.006409	-0.16815	-0.002899	0.084991	-0.000458	-0.063629	-0.030975	-0.049438	-0.025482	0.085144	-0.25055	-0.06485	0.043488	0.18539	-0.069885	-0.036926	0.00412	0.31891	-0.059052	-0.061493	-0.003815	0.17044	0.000458	-0.007477	0.054016	-0.001373	-0.00824
41.346	0.015869	0.14496	-0.00351	0.007782	0.011597	0.069275	-0.16525	0.005798	0.076752	-0.020447	-0.15045	-0.027313	-0.026398	-0.028534	0.28534	-0.038147	-0.059814	-0.018311	0.1561	-0.10956	-0.037384	-0.028381	0.298	-0.055389	-0.037384	-0.006561	0.22812	0.001068	-0.095215	0.057983	-0.001068	-0.011597
41.347	0.009308	0.19196	0.12833	0.006104	-0.055542	0.13992	-0.13382	0.01297	0.049896	-0.04303	-0.10757	-0.022278	0.000763	0.02121	0.21149	-0.14206	-0.05661	-0.018768	-0.010223	-0.033569	-0.019531	-0.056	0.29358	-0.024109	-0.0354	-0.00351	0.12085	-0.000763	-0.083313	-0.001221	-0.002136	-0.010376
41.348	0.006256	0.233	0.22156	0.008087	-0.08667	0.1564	-0.15076	-0.015259	0.024109	-0.033875	0.059814	-0.022736	-0.079956	0.027008	0.4866	-0.13504	-0.011292	0.03006	-0.30014	0.015869	-0.038147	-0.04715	0.26215	-0.034943	-0.015411	0.002441	-0.19211	-0.003967	-0.011902	-0.063477	-0.003357	-0.000305
41.349	-0.003815	0.22507	0.11353	0.007629	-0.10162	0.000763	-0.15915	0.013428	0.063629	-0.050507	0.10773	-0.006409	-0.021667	0.041656	0.14999	0.078735	0.010071	-0.004578	-0.55237	0.037842	-0.036316	-0.034943	0.26916	-0.037842	-0.02243	0.001984	0.083771	-0.006714	0.08728	-0.066223	-0.003357	-0.004578
41.35	-0.001678	0.24399	0.11826	-0.004425	-0.050659	-0.038147	-0.14282	0.016632	0.1297	-0.060425	0.11337	-0.019684	-0.020752	0.030212	0.011749	0.1384	0.06958	-0.015259	-0.55206	-0.046844	-0.041351	-0.004578	0.29404	0.005035	-0.017548	0.001221	-0.035553	-0.005188	0.059204	-0.027313	-0.000916	-0.010376
41.351	-0.00061	0.28946	0.23651	0.009155	-0.005798	0.048218	-0.1651	0.012054	0.15106	-0.057831	0.11353	-0.025635	-0.015717	-0.032959	-0.40543	-0.031738	0.07019	0.066071	-0.37491	-0.063934	-0.055542	0.035706	0.31921	-0.014496	-0.020752	-0.004578	-0.21637	-0.005341	0.026855	-0.005188	-0.004578	-0.007782
41.352	0.018768	0.27451	0.1767	0.010681	0.11276	-0.10925	-0.13825	0.003815	0.14648	-0.026245	0.1622	-0.032196	-0.0737	-0.040131	-0.37674	-0.06546	0.084076	0.12543	-0.26413	-0.052185	-0.063477	0.04425	0.29785	-0.031891	-0.015411	0.002289	-0.12116	-0.002136	0.035706	-0.053101	-0.003662	-0.015106
41.353	0.023193	0.13763	-0.004425	0.009918	0.099182	-0.10315	-0.085907	0.003357	0.11795	-0.041962	0.078278	-0.038147	-0.080872	-0.030975	-0.2269	-0.053406	0.052338	0.17242	-0.17395	-0.050812	-0.055847	0.065918	0.33646	-0.006714	-0.007477	0.001526	-0.076904	-0.007019	0.021057	-0.057678	-0.003204	-0.014648
41.354	0.007935	0.009308	-0.025177	0.004578	0.049744	-0.1268	-0.041656	0.000763	0.077057	-0.047913	-0.019684	-0.016937	-0.11322	-0.024109	-0.19638	-0.014496	0.007629	0.2066	-0.11551	-0.080566	-0.043182	0.057526	0.31616	0.027313	-0.006409	-0.002899	0.12054	-0.004272	0.051117	-0.055542	-0.004272	-0.017395
41.355	0.006866	-0.067139	-0.15503	0.00061	0.027924	-0.1355	-0.002441	-0.003967	0.037079	-0.060272	0.010681	-0.030823	-0.12558	-0.022888	-0.12772	0.014954	-0.06073	0.24384	-0.18341	-0.084076	-0.03479	0.051727	0.25528	0.036316	-0.005951	0.003815	0.021667	-0.010223	0.030823	0.003662	0.001526	-0.016937
41.356	0.008392	-0.089722	-0.10468	0.013733	0.067902	-0.084839	0.005035	0.003967	0.007019	-0.086823	0.021362	-0.025635	-0.10239	-0.027771	-0.002441	0.031433	-0.00885	0.28824	-0.088501	-0.081177	0.023499	0.073395	0.24872	0.068054	-0.015411	0.000763	0.014191	-0.009613	0.054321	0.015411	-0.003967	-0.00946
